<?xml version="1.0" encoding="UTF-8" standalone="no"?>
<!DOCTYPE svg PUBLIC "-//W3C//DTD SVG 1.1//EN"
 "http://www.w3.org/Graphics/SVG/1.1/DTD/svg11.dtd">
<!-- Generated by graphviz version 2.43.0 (0)
 -->
<!-- Title: %3 Pages: 1 -->
<svg width="1749pt" height="548pt"
 viewBox="0.00 0.00 1749.32 548.00" xmlns="http://www.w3.org/2000/svg" xmlns:xlink="http://www.w3.org/1999/xlink">
<g id="graph0" class="graph" transform="scale(1 1) rotate(0) translate(4 544)">
<title>%3</title>
<polygon fill="white" stroke="transparent" points="-4,4 -4,-544 1745.32,-544 1745.32,4 -4,4"/>
<!-- [root] data.digitalocean_certificate.certificate (expand) -->
<g id="node1" class="node">
<title>[root] data.digitalocean_certificate.certificate (expand)</title>
<polygon fill="none" stroke="black" points="387.03,-252 92.03,-252 92.03,-216 387.03,-216 387.03,-252"/>
<text text-anchor="middle" x="239.53" y="-230.3" font-family="Times,serif" font-size="14.00">data.digitalocean_certificate.certificate</text>
</g>
<!-- [root] provider[&quot;registry.terraform.io/digitalocean/digitalocean&quot;] -->
<g id="node9" class="node">
<title>[root] provider[&quot;registry.terraform.io/digitalocean/digitalocean&quot;]</title>
<polygon fill="none" stroke="black" points="546.53,-108 150.22,-90 546.53,-72 942.85,-90 546.53,-108"/>
<text text-anchor="middle" x="546.53" y="-86.3" font-family="Times,serif" font-size="14.00">provider[&quot;registry.terraform.io/digitalocean/digitalocean&quot;]</text>
</g>
<!-- [root] data.digitalocean_certificate.certificate (expand)&#45;&gt;[root] provider[&quot;registry.terraform.io/digitalocean/digitalocean&quot;] -->
<g id="edge1" class="edge">
<title>[root] data.digitalocean_certificate.certificate (expand)&#45;&gt;[root] provider[&quot;registry.terraform.io/digitalocean/digitalocean&quot;]</title>
<path fill="none" stroke="black" d="M238,-215.95C237.21,-195.83 239.27,-162.72 258.53,-144 279.42,-123.69 339.34,-110.94 399.15,-103.06"/>
<polygon fill="black" stroke="black" points="399.65,-106.52 409.13,-101.79 398.77,-99.58 399.65,-106.52"/>
</g>
<!-- [root] var.certificate_name -->
<g id="node10" class="node">
<title>[root] var.certificate_name</title>
<polygon fill="none" stroke="black" points="423.03,-180 268.03,-180 268.03,-144 429.03,-144 429.03,-174 423.03,-180"/>
<polyline fill="none" stroke="black" points="423.03,-180 423.03,-174 "/>
<polyline fill="none" stroke="black" points="429.03,-174 423.03,-174 "/>
<text text-anchor="middle" x="348.53" y="-158.3" font-family="Times,serif" font-size="14.00">var.certificate_name</text>
</g>
<!-- [root] data.digitalocean_certificate.certificate (expand)&#45;&gt;[root] var.certificate_name -->
<g id="edge2" class="edge">
<title>[root] data.digitalocean_certificate.certificate (expand)&#45;&gt;[root] var.certificate_name</title>
<path fill="none" stroke="black" d="M266.2,-215.88C280.32,-206.81 297.84,-195.55 313.09,-185.76"/>
<polygon fill="black" stroke="black" points="315.24,-188.54 321.77,-180.19 311.46,-182.65 315.24,-188.54"/>
</g>
<!-- [root] data.digitalocean_domain.domain (expand) -->
<g id="node2" class="node">
<title>[root] data.digitalocean_domain.domain (expand)</title>
<polygon fill="none" stroke="black" points="612.53,-324 356.53,-324 356.53,-288 612.53,-288 612.53,-324"/>
<text text-anchor="middle" x="484.53" y="-302.3" font-family="Times,serif" font-size="14.00">data.digitalocean_domain.domain</text>
</g>
<!-- [root] data.digitalocean_domain.domain (expand)&#45;&gt;[root] provider[&quot;registry.terraform.io/digitalocean/digitalocean&quot;] -->
<g id="edge3" class="edge">
<title>[root] data.digitalocean_domain.domain (expand)&#45;&gt;[root] provider[&quot;registry.terraform.io/digitalocean/digitalocean&quot;]</title>
<path fill="none" stroke="black" d="M487.32,-287.72C492.43,-257.85 504.44,-194.87 522.53,-144 525.73,-135.01 529.83,-125.44 533.74,-116.94"/>
<polygon fill="black" stroke="black" points="536.91,-118.43 538.01,-107.89 530.58,-115.44 536.91,-118.43"/>
</g>
<!-- [root] var.domain_name -->
<g id="node12" class="node">
<title>[root] var.domain_name</title>
<polygon fill="none" stroke="black" points="648.03,-252 513.03,-252 513.03,-216 654.03,-216 654.03,-246 648.03,-252"/>
<polyline fill="none" stroke="black" points="648.03,-252 648.03,-246 "/>
<polyline fill="none" stroke="black" points="654.03,-246 648.03,-246 "/>
<text text-anchor="middle" x="583.53" y="-230.3" font-family="Times,serif" font-size="14.00">var.domain_name</text>
</g>
<!-- [root] data.digitalocean_domain.domain (expand)&#45;&gt;[root] var.domain_name -->
<g id="edge4" class="edge">
<title>[root] data.digitalocean_domain.domain (expand)&#45;&gt;[root] var.domain_name</title>
<path fill="none" stroke="black" d="M508.75,-287.88C521.45,-278.89 537.2,-267.76 550.96,-258.03"/>
<polygon fill="black" stroke="black" points="553.08,-260.82 559.22,-252.19 549.04,-255.11 553.08,-260.82"/>
</g>
<!-- [root] digitalocean_droplet.web_droplet (expand) -->
<g id="node3" class="node">
<title>[root] digitalocean_droplet.web_droplet (expand)</title>
<polygon fill="none" stroke="black" points="1037.53,-252 783.53,-252 783.53,-216 1037.53,-216 1037.53,-252"/>
<text text-anchor="middle" x="910.53" y="-230.3" font-family="Times,serif" font-size="14.00">digitalocean_droplet.web_droplet</text>
</g>
<!-- [root] digitalocean_ssh_key.web_ssh_key (expand) -->
<g id="node7" class="node">
<title>[root] digitalocean_ssh_key.web_ssh_key (expand)</title>
<polygon fill="none" stroke="black" points="1261.53,-180 1001.53,-180 1001.53,-144 1261.53,-144 1261.53,-180"/>
<text text-anchor="middle" x="1131.53" y="-158.3" font-family="Times,serif" font-size="14.00">digitalocean_ssh_key.web_ssh_key</text>
</g>
<!-- [root] digitalocean_droplet.web_droplet (expand)&#45;&gt;[root] digitalocean_ssh_key.web_ssh_key (expand) -->
<g id="edge5" class="edge">
<title>[root] digitalocean_droplet.web_droplet (expand)&#45;&gt;[root] digitalocean_ssh_key.web_ssh_key (expand)</title>
<path fill="none" stroke="black" d="M964.31,-215.97C995.46,-206.1 1034.86,-193.62 1067.58,-183.25"/>
<polygon fill="black" stroke="black" points="1069.03,-186.47 1077.51,-180.11 1066.92,-179.79 1069.03,-186.47"/>
</g>
<!-- [root] digitalocean_vpc.web_vpc (expand) -->
<g id="node8" class="node">
<title>[root] digitalocean_vpc.web_vpc (expand)</title>
<polygon fill="none" stroke="black" points="1479.53,-180 1279.53,-180 1279.53,-144 1479.53,-144 1479.53,-180"/>
<text text-anchor="middle" x="1379.53" y="-158.3" font-family="Times,serif" font-size="14.00">digitalocean_vpc.web_vpc</text>
</g>
<!-- [root] digitalocean_droplet.web_droplet (expand)&#45;&gt;[root] digitalocean_vpc.web_vpc (expand) -->
<g id="edge6" class="edge">
<title>[root] digitalocean_droplet.web_droplet (expand)&#45;&gt;[root] digitalocean_vpc.web_vpc (expand)</title>
<path fill="none" stroke="black" d="M1028.12,-215.95C1095.86,-206.06 1182.91,-193.25 1269.45,-180.16"/>
<polygon fill="black" stroke="black" points="1270.09,-183.6 1279.45,-178.64 1269.04,-176.68 1270.09,-183.6"/>
</g>
<!-- [root] var.droplet_count -->
<g id="node13" class="node">
<title>[root] var.droplet_count</title>
<polygon fill="none" stroke="black" points="814.03,-180 679.03,-180 679.03,-144 820.03,-144 820.03,-174 814.03,-180"/>
<polyline fill="none" stroke="black" points="814.03,-180 814.03,-174 "/>
<polyline fill="none" stroke="black" points="820.03,-174 814.03,-174 "/>
<text text-anchor="middle" x="749.53" y="-158.3" font-family="Times,serif" font-size="14.00">var.droplet_count</text>
</g>
<!-- [root] digitalocean_droplet.web_droplet (expand)&#45;&gt;[root] var.droplet_count -->
<g id="edge7" class="edge">
<title>[root] digitalocean_droplet.web_droplet (expand)&#45;&gt;[root] var.droplet_count</title>
<path fill="none" stroke="black" d="M871.15,-215.88C849.14,-206.31 821.52,-194.3 798.17,-184.15"/>
<polygon fill="black" stroke="black" points="799.36,-180.85 788.79,-180.07 796.56,-187.27 799.36,-180.85"/>
</g>
<!-- [root] var.droplet_image -->
<g id="node14" class="node">
<title>[root] var.droplet_image</title>
<polygon fill="none" stroke="black" points="977.03,-180 838.03,-180 838.03,-144 983.03,-144 983.03,-174 977.03,-180"/>
<polyline fill="none" stroke="black" points="977.03,-180 977.03,-174 "/>
<polyline fill="none" stroke="black" points="983.03,-174 977.03,-174 "/>
<text text-anchor="middle" x="910.53" y="-158.3" font-family="Times,serif" font-size="14.00">var.droplet_image</text>
</g>
<!-- [root] digitalocean_droplet.web_droplet (expand)&#45;&gt;[root] var.droplet_image -->
<g id="edge8" class="edge">
<title>[root] digitalocean_droplet.web_droplet (expand)&#45;&gt;[root] var.droplet_image</title>
<path fill="none" stroke="black" d="M910.53,-215.7C910.53,-207.98 910.53,-198.71 910.53,-190.11"/>
<polygon fill="black" stroke="black" points="914.03,-190.1 910.53,-180.1 907.03,-190.1 914.03,-190.1"/>
</g>
<!-- [root] var.droplet_size -->
<g id="node15" class="node">
<title>[root] var.droplet_size</title>
<polygon fill="none" stroke="black" points="655.03,-180 532.03,-180 532.03,-144 661.03,-144 661.03,-174 655.03,-180"/>
<polyline fill="none" stroke="black" points="655.03,-180 655.03,-174 "/>
<polyline fill="none" stroke="black" points="661.03,-174 655.03,-174 "/>
<text text-anchor="middle" x="596.53" y="-158.3" font-family="Times,serif" font-size="14.00">var.droplet_size</text>
</g>
<!-- [root] digitalocean_droplet.web_droplet (expand)&#45;&gt;[root] var.droplet_size -->
<g id="edge9" class="edge">
<title>[root] digitalocean_droplet.web_droplet (expand)&#45;&gt;[root] var.droplet_size</title>
<path fill="none" stroke="black" d="M832.06,-216C787.4,-206.26 730.16,-193.68 671.25,-180.38"/>
<polygon fill="black" stroke="black" points="671.93,-176.94 661.4,-178.15 670.38,-183.77 671.93,-176.94"/>
</g>
<!-- [root] digitalocean_firewall.web_firewal (expand) -->
<g id="node4" class="node">
<title>[root] digitalocean_firewall.web_firewal (expand)</title>
<polygon fill="none" stroke="black" points="1037.03,-324 784.03,-324 784.03,-288 1037.03,-288 1037.03,-324"/>
<text text-anchor="middle" x="910.53" y="-302.3" font-family="Times,serif" font-size="14.00">digitalocean_firewall.web_firewal</text>
</g>
<!-- [root] digitalocean_firewall.web_firewal (expand)&#45;&gt;[root] digitalocean_droplet.web_droplet (expand) -->
<g id="edge10" class="edge">
<title>[root] digitalocean_firewall.web_firewal (expand)&#45;&gt;[root] digitalocean_droplet.web_droplet (expand)</title>
<path fill="none" stroke="black" d="M910.53,-287.7C910.53,-279.98 910.53,-270.71 910.53,-262.11"/>
<polygon fill="black" stroke="black" points="914.03,-262.1 910.53,-252.1 907.03,-262.1 914.03,-262.1"/>
</g>
<!-- [root] digitalocean_loadbalancer.web_lb (expand) -->
<g id="node5" class="node">
<title>[root] digitalocean_loadbalancer.web_lb (expand)</title>
<polygon fill="none" stroke="black" points="338.53,-324 84.53,-324 84.53,-288 338.53,-288 338.53,-324"/>
<text text-anchor="middle" x="211.53" y="-302.3" font-family="Times,serif" font-size="14.00">digitalocean_loadbalancer.web_lb</text>
</g>
<!-- [root] digitalocean_loadbalancer.web_lb (expand)&#45;&gt;[root] data.digitalocean_certificate.certificate (expand) -->
<g id="edge11" class="edge">
<title>[root] digitalocean_loadbalancer.web_lb (expand)&#45;&gt;[root] data.digitalocean_certificate.certificate (expand)</title>
<path fill="none" stroke="black" d="M218.45,-287.7C221.61,-279.81 225.41,-270.3 228.91,-261.55"/>
<polygon fill="black" stroke="black" points="232.23,-262.69 232.69,-252.1 225.73,-260.09 232.23,-262.69"/>
</g>
<!-- [root] digitalocean_loadbalancer.web_lb (expand)&#45;&gt;[root] digitalocean_droplet.web_droplet (expand) -->
<g id="edge12" class="edge">
<title>[root] digitalocean_loadbalancer.web_lb (expand)&#45;&gt;[root] digitalocean_droplet.web_droplet (expand)</title>
<path fill="none" stroke="black" d="M338.57,-289C341.58,-288.66 344.58,-288.32 347.53,-288 492.71,-272.1 659.27,-256.78 773.34,-246.74"/>
<polygon fill="black" stroke="black" points="773.87,-250.2 783.53,-245.84 773.26,-243.23 773.87,-250.2"/>
</g>
<!-- [root] digitalocean_record.record_name (expand) -->
<g id="node6" class="node">
<title>[root] digitalocean_record.record_name (expand)</title>
<polygon fill="none" stroke="black" points="678.53,-396 424.53,-396 424.53,-360 678.53,-360 678.53,-396"/>
<text text-anchor="middle" x="551.53" y="-374.3" font-family="Times,serif" font-size="14.00">digitalocean_record.record_name</text>
</g>
<!-- [root] digitalocean_record.record_name (expand)&#45;&gt;[root] data.digitalocean_domain.domain (expand) -->
<g id="edge13" class="edge">
<title>[root] digitalocean_record.record_name (expand)&#45;&gt;[root] data.digitalocean_domain.domain (expand)</title>
<path fill="none" stroke="black" d="M534.97,-359.7C526.86,-351.22 516.94,-340.86 508.06,-331.58"/>
<polygon fill="black" stroke="black" points="510.35,-328.91 500.9,-324.1 505.29,-333.75 510.35,-328.91"/>
</g>
<!-- [root] digitalocean_record.record_name (expand)&#45;&gt;[root] digitalocean_loadbalancer.web_lb (expand) -->
<g id="edge14" class="edge">
<title>[root] digitalocean_record.record_name (expand)&#45;&gt;[root] digitalocean_loadbalancer.web_lb (expand)</title>
<path fill="none" stroke="black" d="M468.79,-359.97C419.13,-349.74 355.84,-336.71 304.46,-326.13"/>
<polygon fill="black" stroke="black" points="304.85,-322.64 294.35,-324.05 303.44,-329.49 304.85,-322.64"/>
</g>
<!-- [root] var.record_name -->
<g id="node18" class="node">
<title>[root] var.record_name</title>
<polygon fill="none" stroke="black" points="760.03,-324 631.03,-324 631.03,-288 766.03,-288 766.03,-318 760.03,-324"/>
<polyline fill="none" stroke="black" points="760.03,-324 760.03,-318 "/>
<polyline fill="none" stroke="black" points="766.03,-318 760.03,-318 "/>
<text text-anchor="middle" x="698.53" y="-302.3" font-family="Times,serif" font-size="14.00">var.record_name</text>
</g>
<!-- [root] digitalocean_record.record_name (expand)&#45;&gt;[root] var.record_name -->
<g id="edge15" class="edge">
<title>[root] digitalocean_record.record_name (expand)&#45;&gt;[root] var.record_name</title>
<path fill="none" stroke="black" d="M587.49,-359.88C607.41,-350.39 632.35,-338.51 653.55,-328.42"/>
<polygon fill="black" stroke="black" points="655.17,-331.53 662.69,-324.07 652.16,-325.21 655.17,-331.53"/>
</g>
<!-- [root] digitalocean_ssh_key.web_ssh_key (expand)&#45;&gt;[root] provider[&quot;registry.terraform.io/digitalocean/digitalocean&quot;] -->
<g id="edge16" class="edge">
<title>[root] digitalocean_ssh_key.web_ssh_key (expand)&#45;&gt;[root] provider[&quot;registry.terraform.io/digitalocean/digitalocean&quot;]</title>
<path fill="none" stroke="black" d="M1001.31,-145.06C998.36,-144.7 995.43,-144.35 992.53,-144 879.86,-130.42 751.14,-115.15 661.04,-104.5"/>
<polygon fill="black" stroke="black" points="661.42,-101.02 651.08,-103.32 660.6,-107.97 661.42,-101.02"/>
</g>
<!-- [root] var.env_prefix -->
<g id="node16" class="node">
<title>[root] var.env_prefix</title>
<polygon fill="none" stroke="black" points="1287.53,-108 1177.53,-108 1177.53,-72 1293.53,-72 1293.53,-102 1287.53,-108"/>
<polyline fill="none" stroke="black" points="1287.53,-108 1287.53,-102 "/>
<polyline fill="none" stroke="black" points="1293.53,-102 1287.53,-102 "/>
<text text-anchor="middle" x="1235.53" y="-86.3" font-family="Times,serif" font-size="14.00">var.env_prefix</text>
</g>
<!-- [root] digitalocean_ssh_key.web_ssh_key (expand)&#45;&gt;[root] var.env_prefix -->
<g id="edge17" class="edge">
<title>[root] digitalocean_ssh_key.web_ssh_key (expand)&#45;&gt;[root] var.env_prefix</title>
<path fill="none" stroke="black" d="M1156.97,-143.88C1170.32,-134.89 1186.86,-123.76 1201.31,-114.03"/>
<polygon fill="black" stroke="black" points="1203.65,-116.68 1209.99,-108.19 1199.74,-110.87 1203.65,-116.68"/>
</g>
<!-- [root] var.ssh_key_path -->
<g id="node19" class="node">
<title>[root] var.ssh_key_path</title>
<polygon fill="none" stroke="black" points="1153.03,-108 1022.03,-108 1022.03,-72 1159.03,-72 1159.03,-102 1153.03,-108"/>
<polyline fill="none" stroke="black" points="1153.03,-108 1153.03,-102 "/>
<polyline fill="none" stroke="black" points="1159.03,-102 1153.03,-102 "/>
<text text-anchor="middle" x="1090.53" y="-86.3" font-family="Times,serif" font-size="14.00">var.ssh_key_path</text>
</g>
<!-- [root] digitalocean_ssh_key.web_ssh_key (expand)&#45;&gt;[root] var.ssh_key_path -->
<g id="edge18" class="edge">
<title>[root] digitalocean_ssh_key.web_ssh_key (expand)&#45;&gt;[root] var.ssh_key_path</title>
<path fill="none" stroke="black" d="M1121.4,-143.7C1116.68,-135.64 1110.97,-125.89 1105.75,-116.98"/>
<polygon fill="black" stroke="black" points="1108.62,-114.96 1100.55,-108.1 1102.58,-118.5 1108.62,-114.96"/>
</g>
<!-- [root] digitalocean_vpc.web_vpc (expand)&#45;&gt;[root] provider[&quot;registry.terraform.io/digitalocean/digitalocean&quot;] -->
<g id="edge19" class="edge">
<title>[root] digitalocean_vpc.web_vpc (expand)&#45;&gt;[root] provider[&quot;registry.terraform.io/digitalocean/digitalocean&quot;]</title>
<path fill="none" stroke="black" d="M1279.49,-145.07C1276.47,-144.7 1273.48,-144.34 1270.53,-144 1088.92,-123.23 880.69,-108.98 734.31,-100.53"/>
<polygon fill="black" stroke="black" points="734.5,-97.04 724.32,-99.96 734.1,-104.02 734.5,-97.04"/>
</g>
<!-- [root] digitalocean_vpc.web_vpc (expand)&#45;&gt;[root] var.env_prefix -->
<g id="edge20" class="edge">
<title>[root] digitalocean_vpc.web_vpc (expand)&#45;&gt;[root] var.env_prefix</title>
<path fill="none" stroke="black" d="M1344.31,-143.88C1324.95,-134.47 1300.76,-122.71 1280.1,-112.67"/>
<polygon fill="black" stroke="black" points="1281.42,-109.41 1270.89,-108.19 1278.36,-115.71 1281.42,-109.41"/>
</g>
<!-- [root] var.env_region -->
<g id="node17" class="node">
<title>[root] var.env_region</title>
<polygon fill="none" stroke="black" points="1581.03,-108 1466.03,-108 1466.03,-72 1587.03,-72 1587.03,-102 1581.03,-108"/>
<polyline fill="none" stroke="black" points="1581.03,-108 1581.03,-102 "/>
<polyline fill="none" stroke="black" points="1587.03,-102 1581.03,-102 "/>
<text text-anchor="middle" x="1526.53" y="-86.3" font-family="Times,serif" font-size="14.00">var.env_region</text>
</g>
<!-- [root] digitalocean_vpc.web_vpc (expand)&#45;&gt;[root] var.env_region -->
<g id="edge21" class="edge">
<title>[root] digitalocean_vpc.web_vpc (expand)&#45;&gt;[root] var.env_region</title>
<path fill="none" stroke="black" d="M1415.49,-143.88C1435.41,-134.39 1460.35,-122.51 1481.55,-112.42"/>
<polygon fill="black" stroke="black" points="1483.17,-115.53 1490.69,-108.07 1480.16,-109.21 1483.17,-115.53"/>
</g>
<!-- [root] var.vpc_ip_range -->
<g id="node20" class="node">
<title>[root] var.vpc_ip_range</title>
<polygon fill="none" stroke="black" points="1441.53,-108 1311.53,-108 1311.53,-72 1447.53,-72 1447.53,-102 1441.53,-108"/>
<polyline fill="none" stroke="black" points="1441.53,-108 1441.53,-102 "/>
<polyline fill="none" stroke="black" points="1447.53,-102 1441.53,-102 "/>
<text text-anchor="middle" x="1379.53" y="-86.3" font-family="Times,serif" font-size="14.00">var.vpc_ip_range</text>
</g>
<!-- [root] digitalocean_vpc.web_vpc (expand)&#45;&gt;[root] var.vpc_ip_range -->
<g id="edge22" class="edge">
<title>[root] digitalocean_vpc.web_vpc (expand)&#45;&gt;[root] var.vpc_ip_range</title>
<path fill="none" stroke="black" d="M1379.53,-143.7C1379.53,-135.98 1379.53,-126.71 1379.53,-118.11"/>
<polygon fill="black" stroke="black" points="1383.03,-118.1 1379.53,-108.1 1376.03,-118.1 1383.03,-118.1"/>
</g>
<!-- [root] var.do_token -->
<g id="node11" class="node">
<title>[root] var.do_token</title>
<polygon fill="none" stroke="black" points="594.03,-36 493.03,-36 493.03,0 600.03,0 600.03,-30 594.03,-36"/>
<polyline fill="none" stroke="black" points="594.03,-36 594.03,-30 "/>
<polyline fill="none" stroke="black" points="600.03,-30 594.03,-30 "/>
<text text-anchor="middle" x="546.53" y="-14.3" font-family="Times,serif" font-size="14.00">var.do_token</text>
</g>
<!-- [root] provider[&quot;registry.terraform.io/digitalocean/digitalocean&quot;]&#45;&gt;[root] var.do_token -->
<g id="edge29" class="edge">
<title>[root] provider[&quot;registry.terraform.io/digitalocean/digitalocean&quot;]&#45;&gt;[root] var.do_token</title>
<path fill="none" stroke="black" d="M546.53,-71.7C546.53,-63.98 546.53,-54.71 546.53,-46.11"/>
<polygon fill="black" stroke="black" points="550.03,-46.1 546.53,-36.1 543.03,-46.1 550.03,-46.1"/>
</g>
<!-- [root] output.droplet_ips (expand) -->
<g id="node21" class="node">
<title>[root] output.droplet_ips (expand)</title>
<ellipse fill="none" stroke="black" cx="937.53" cy="-378" rx="168.17" ry="18"/>
<text text-anchor="middle" x="937.53" y="-374.3" font-family="Times,serif" font-size="14.00">[root] output.droplet_ips (expand)</text>
</g>
<!-- [root] output.droplet_ips (expand)&#45;&gt;[root] digitalocean_droplet.web_droplet (expand) -->
<g id="edge23" class="edge">
<title>[root] output.droplet_ips (expand)&#45;&gt;[root] digitalocean_droplet.web_droplet (expand)</title>
<path fill="none" stroke="black" d="M998.63,-361.21C1017.25,-353.22 1035.65,-341.39 1046.53,-324 1055.02,-310.44 1055.56,-301.21 1046.53,-288 1037.12,-274.23 1023.55,-264.03 1008.59,-256.49"/>
<polygon fill="black" stroke="black" points="1009.67,-253.13 999.12,-252.12 1006.74,-259.49 1009.67,-253.13"/>
</g>
<!-- [root] output.load_balancer_pip (expand) -->
<g id="node22" class="node">
<title>[root] output.load_balancer_pip (expand)</title>
<ellipse fill="none" stroke="black" cx="199.53" cy="-378" rx="199.56" ry="18"/>
<text text-anchor="middle" x="199.53" y="-374.3" font-family="Times,serif" font-size="14.00">[root] output.load_balancer_pip (expand)</text>
</g>
<!-- [root] output.load_balancer_pip (expand)&#45;&gt;[root] digitalocean_loadbalancer.web_lb (expand) -->
<g id="edge24" class="edge">
<title>[root] output.load_balancer_pip (expand)&#45;&gt;[root] digitalocean_loadbalancer.web_lb (expand)</title>
<path fill="none" stroke="black" d="M202.5,-359.7C203.82,-351.98 205.41,-342.71 206.88,-334.11"/>
<polygon fill="black" stroke="black" points="210.36,-334.55 208.6,-324.1 203.46,-333.37 210.36,-334.55"/>
</g>
<!-- [root] output.ssh_key_fingerprint (expand) -->
<g id="node23" class="node">
<title>[root] output.ssh_key_fingerprint (expand)</title>
<ellipse fill="none" stroke="black" cx="1162.53" cy="-450" rx="207.16" ry="18"/>
<text text-anchor="middle" x="1162.53" y="-446.3" font-family="Times,serif" font-size="14.00">[root] output.ssh_key_fingerprint (expand)</text>
</g>
<!-- [root] output.ssh_key_fingerprint (expand)&#45;&gt;[root] digitalocean_ssh_key.web_ssh_key (expand) -->
<g id="edge25" class="edge">
<title>[root] output.ssh_key_fingerprint (expand)&#45;&gt;[root] digitalocean_ssh_key.web_ssh_key (expand)</title>
<path fill="none" stroke="black" d="M1160.69,-431.97C1155.51,-384.19 1140.81,-248.62 1134.49,-190.27"/>
<polygon fill="black" stroke="black" points="1137.97,-189.87 1133.41,-180.31 1131.01,-190.63 1137.97,-189.87"/>
</g>
<!-- [root] output.vpc_ip_range (expand) -->
<g id="node24" class="node">
<title>[root] output.vpc_ip_range (expand)</title>
<ellipse fill="none" stroke="black" cx="1564.53" cy="-450" rx="176.57" ry="18"/>
<text text-anchor="middle" x="1564.53" y="-446.3" font-family="Times,serif" font-size="14.00">[root] output.vpc_ip_range (expand)</text>
</g>
<!-- [root] output.vpc_ip_range (expand)&#45;&gt;[root] digitalocean_vpc.web_vpc (expand) -->
<g id="edge26" class="edge">
<title>[root] output.vpc_ip_range (expand)&#45;&gt;[root] digitalocean_vpc.web_vpc (expand)</title>
<path fill="none" stroke="black" d="M1553.51,-431.97C1522.35,-383.8 1433.46,-246.37 1396.24,-188.83"/>
<polygon fill="black" stroke="black" points="1399.1,-186.8 1390.73,-180.31 1393.22,-190.6 1399.1,-186.8"/>
</g>
<!-- [root] provider[&quot;registry.terraform.io/digitalocean/digitalocean&quot;] (close) -->
<g id="node25" class="node">
<title>[root] provider[&quot;registry.terraform.io/digitalocean/digitalocean&quot;] (close)</title>
<ellipse fill="none" stroke="black" cx="557.53" cy="-450" rx="341.74" ry="18"/>
<text text-anchor="middle" x="557.53" y="-446.3" font-family="Times,serif" font-size="14.00">[root] provider[&quot;registry.terraform.io/digitalocean/digitalocean&quot;] (close)</text>
</g>
<!-- [root] provider[&quot;registry.terraform.io/digitalocean/digitalocean&quot;] (close)&#45;&gt;[root] digitalocean_firewall.web_firewal (expand) -->
<g id="edge27" class="edge">
<title>[root] provider[&quot;registry.terraform.io/digitalocean/digitalocean&quot;] (close)&#45;&gt;[root] digitalocean_firewall.web_firewal (expand)</title>
<path fill="none" stroke="black" d="M601.19,-432.1C626.58,-422.05 659.08,-408.8 687.53,-396 720.52,-381.16 727.2,-374.05 760.53,-360 788.75,-348.11 820.67,-336.57 847.78,-327.32"/>
<polygon fill="black" stroke="black" points="849.19,-330.54 857.54,-324.01 846.94,-323.91 849.19,-330.54"/>
</g>
<!-- [root] provider[&quot;registry.terraform.io/digitalocean/digitalocean&quot;] (close)&#45;&gt;[root] digitalocean_record.record_name (expand) -->
<g id="edge28" class="edge">
<title>[root] provider[&quot;registry.terraform.io/digitalocean/digitalocean&quot;] (close)&#45;&gt;[root] digitalocean_record.record_name (expand)</title>
<path fill="none" stroke="black" d="M556.05,-431.7C555.39,-423.98 554.59,-414.71 553.86,-406.11"/>
<polygon fill="black" stroke="black" points="557.34,-405.77 553,-396.1 550.37,-406.37 557.34,-405.77"/>
</g>
<!-- [root] root -->
<g id="node26" class="node">
<title>[root] root</title>
<ellipse fill="none" stroke="black" cx="927.53" cy="-522" rx="58.49" ry="18"/>
<text text-anchor="middle" x="927.53" y="-518.3" font-family="Times,serif" font-size="14.00">[root] root</text>
</g>
<!-- [root] root&#45;&gt;[root] output.droplet_ips (expand) -->
<g id="edge30" class="edge">
<title>[root] root&#45;&gt;[root] output.droplet_ips (expand)</title>
<path fill="none" stroke="black" d="M928.74,-503.87C930.44,-479.67 933.57,-435.21 935.6,-406.39"/>
<polygon fill="black" stroke="black" points="939.11,-406.41 936.32,-396.19 932.13,-405.92 939.11,-406.41"/>
</g>
<!-- [root] root&#45;&gt;[root] output.load_balancer_pip (expand) -->
<g id="edge31" class="edge">
<title>[root] root&#45;&gt;[root] output.load_balancer_pip (expand)</title>
<path fill="none" stroke="black" d="M869.13,-520.98C705.78,-520.33 253.11,-514.34 206.53,-468 190.7,-452.25 190.47,-426.03 193.3,-406.12"/>
<polygon fill="black" stroke="black" points="196.78,-406.54 195.05,-396.09 189.88,-405.34 196.78,-406.54"/>
</g>
<!-- [root] root&#45;&gt;[root] output.ssh_key_fingerprint (expand) -->
<g id="edge32" class="edge">
<title>[root] root&#45;&gt;[root] output.ssh_key_fingerprint (expand)</title>
<path fill="none" stroke="black" d="M967.93,-508.97C1003.53,-498.36 1056.03,-482.73 1097.53,-470.36"/>
<polygon fill="black" stroke="black" points="1098.7,-473.67 1107.28,-467.46 1096.7,-466.96 1098.7,-473.67"/>
</g>
<!-- [root] root&#45;&gt;[root] output.vpc_ip_range (expand) -->
<g id="edge33" class="edge">
<title>[root] root&#45;&gt;[root] output.vpc_ip_range (expand)</title>
<path fill="none" stroke="black" d="M981.57,-515.06C1082.02,-504.02 1299.91,-480.08 1439,-464.79"/>
<polygon fill="black" stroke="black" points="1439.74,-468.24 1449.29,-463.66 1438.97,-461.28 1439.74,-468.24"/>
</g>
<!-- [root] root&#45;&gt;[root] provider[&quot;registry.terraform.io/digitalocean/digitalocean&quot;] (close) -->
<g id="edge34" class="edge">
<title>[root] root&#45;&gt;[root] provider[&quot;registry.terraform.io/digitalocean/digitalocean&quot;] (close)</title>
<path fill="none" stroke="black" d="M879.16,-511.85C822.38,-501.11 726.8,-483.02 654.56,-469.36"/>
<polygon fill="black" stroke="black" points="655,-465.88 644.53,-467.46 653.7,-472.76 655,-465.88"/>
</g>
</g>
</svg>
